<svg id="Group_23" data-name="Group 23" xmlns="http://www.w3.org/2000/svg" width="196.593" height="142.5" viewBox="0 0 196.593 142.5">
  <path id="Path_2" data-name="Path 2" d="M412.96,584.643v34.351H326.9c-9.806,0-17.784-7.705-17.784-17.176s7.978-17.176,17.784-17.176Z" transform="translate(-287.68 -477.815)" fill="#f2f2f2"/>
  <path id="Path_3" data-name="Path 3" d="M409.923,616.522a1.322,1.322,0,0,1-1.321,1.321H320.214a18.1,18.1,0,0,1,0-36.2H408.6a1.321,1.321,0,1,1,0,2.642H320.214a15.458,15.458,0,0,0,0,30.916H408.6A1.322,1.322,0,0,1,409.923,616.522Z" transform="translate(-282.53 -475.608)" fill="#5ca9fb"/>
  <path id="Path_4" data-name="Path 4" d="M443.862,613.171H351.378a.264.264,0,1,1,0-.528h92.483a.264.264,0,1,1,0,.528Z" transform="translate(-318.583 -498.417)" fill="#ccc"/>
  <path id="Path_5" data-name="Path 5" d="M443.862,637.172H351.378a.264.264,0,1,1,0-.529h92.483a.264.264,0,1,1,0,.529Z" transform="translate(-318.583 -516.075)" fill="#ccc"/>
  <path id="Path_6" data-name="Path 6" d="M443.862,661.171H351.378a.264.264,0,1,1,0-.528h92.483a.264.264,0,1,1,0,.528Z" transform="translate(-318.583 -533.733)" fill="#ccc"/>
  <path id="Path_7" data-name="Path 7" d="M443.862,685.172H351.378a.264.264,0,1,1,0-.528h92.483a.264.264,0,1,1,0,.528Z" transform="translate(-318.583 -551.391)" fill="#ccc"/>
  <path id="Path_8" data-name="Path 8" d="M688.387,447.524l-21.553,26.748-67.015-54c-7.635-6.152-9.013-17.158-3.071-24.532s16.989-8.369,24.624-2.216Z" transform="translate(-496.594 -334.23)" fill="#f2f2f2"/>
  <path id="Path_9" data-name="Path 9" d="M663.529,471.077a1.322,1.322,0,0,1-1.858.2L592.845,415.82a18.1,18.1,0,1,1,22.713-28.189l68.826,55.456a1.321,1.321,0,0,1-1.658,2.058L613.9,389.689a15.458,15.458,0,0,0-19.4,24.074l68.826,55.456a1.322,1.322,0,0,1,.2,1.858Z" transform="translate(-491.477 -329.914)" fill="#ccc"/>
  <path id="Path_10" data-name="Path 10" d="M734.212,469.594,662.2,411.568a.264.264,0,1,1,.331-.411l72.015,58.026a.264.264,0,1,1-.332.411Z" transform="translate(-547.393 -350.128)" fill="#ccc"/>
  <path id="Path_11" data-name="Path 11" d="M719.154,488.283l-72.015-58.026a.264.264,0,1,1,.332-.412l72.015,58.026a.264.264,0,1,1-.331.412Z" transform="translate(-536.314 -363.878)" fill="#ccc"/>
  <path id="Path_12" data-name="Path 12" d="M704.1,506.971l-72.015-58.026a.264.264,0,0,1,.332-.412l72.015,58.026a.264.264,0,1,1-.331.411Z" transform="translate(-525.235 -377.628)" fill="#ccc"/>
  <path id="Path_13" data-name="Path 13" d="M689.038,525.659l-72.015-58.026a.264.264,0,1,1,.332-.412l72.015,58.026a.264.264,0,0,1-.332.411Z" transform="translate(-514.156 -391.378)" fill="#ccc"/>
  <path id="Path_14" data-name="Path 14" d="M424.329,718.172H228.264a.264.264,0,0,1,0-.529H424.329a.264.264,0,1,1,0,.529Z" transform="translate(-228 -575.672)" fill="#ccc"/>
  <path id="Path_15" data-name="Path 15" d="M325.669,358.177h-3.021l-1.437-11.652h4.459Z" transform="translate(-236.335 -254.96)" fill="#ffb8b8"/>
  <path id="Path_16" data-name="Path 16" d="M308.268,387.355h5.826v3.668H304.6a3.668,3.668,0,0,1,3.668-3.668Z" transform="translate(-224.113 -285.001)" fill="#2f2e41"/>
  <path id="Path_17" data-name="Path 17" d="M208.874,358.177h-3.021l-1.437-11.652h4.458Z" transform="translate(-150.402 -254.96)" fill="#ffb8b8"/>
  <path id="Path_18" data-name="Path 18" d="M191.474,387.355H197.3v3.668h-9.494a3.668,3.668,0,0,1,3.668-3.668Z" transform="translate(-138.18 -285.001)" fill="#2f2e41"/>
  <path id="Path_19" data-name="Path 19" d="M487.471,216.483v-1.321a8.522,8.522,0,0,1,8.522-8.522h0a8.522,8.522,0,0,1,8.522,8.522v1.321a6.144,6.144,0,0,1-6.144,6.144h-4.756a6.144,6.144,0,0,1-6.144-6.144Z" transform="translate(-418.909 -199.695)" fill="#2f2e41"/>
  <circle id="Ellipse_1" data-name="Ellipse 1" cx="6.49" cy="6.49" r="6.49" transform="translate(70.594 10.406)" fill="#ffb8b8"/>
  <path id="Path_20" data-name="Path 20" d="M634.488,376.475" transform="translate(-527.078 -324.653)" fill="#ffb8b8"/>
  <path id="Path_21" data-name="Path 21" d="M383.918,326.83a2.478,2.478,0,0,1,3.773.443l5.563-1.052,1.464,3.225-7.878,1.376a2.491,2.491,0,0,1-2.923-3.992Z" transform="translate(-342.135 -287.629)" fill="#ffb8b8"/>
  <path id="Path_22" data-name="Path 22" d="M430.717,283.423l.073.11-9.123,6.01-15.394,4.916a.927.927,0,0,0-.637.988l.336,2.892a.925.925,0,0,0,1.112.8l14.488-3.106a5.234,5.234,0,0,0,1.948-.858l10.249-7.292a2.636,2.636,0,0,0-2.979-4.348Z" transform="translate(-358.692 -255.95)" fill="#ccc"/>
  <path id="Path_23" data-name="Path 23" d="M462.334,402.475a1.194,1.194,0,0,1-1.093-.714l-13.849-34.219a.4.4,0,0,0-.742.042l-11.3,33.313a1.189,1.189,0,0,1-1.554.764l-3.789-1.421a1.186,1.186,0,0,1-.766-.979c-1.7-14.848,13.159-52.327,13.309-52.7l.042-.1,13.549,3,.028.031c5.406,5.9,9.849,43.093,10.685,50.489a1.183,1.183,0,0,1-.785,1.254l-3.344,1.183a1.177,1.177,0,0,1-.393.068Z" transform="translate(-375.967 -302.565)" fill="#2f2e41"/>
  <path id="Path_24" data-name="Path 24" d="M487.213,297.232c-3.283,0-6.943-.655-8.069-3.356l-.026-.062.035-.058c.889-1.459,2.064-3.948,1.433-4.415a5.069,5.069,0,0,1-1.795-4.5,10.839,10.839,0,0,1,7.6-9.9h0a33.731,33.731,0,0,1,3.769-.97,6.416,6.416,0,0,1,5.32,1.314,6.481,6.481,0,0,1,2.4,4.986c.046,4.791-.691,11.464-4.469,16.045a1.176,1.176,0,0,1-.7.4,32.3,32.3,0,0,1-5.507.515Z" transform="translate(-412.52 -249.139)" fill="#ccc"/>
  <path id="Path_25" data-name="Path 25" d="M505.787,346.471a2.525,2.525,0,0,1,3.086-1.761,2.485,2.485,0,0,1,.383.142l4.224-3.844,2.938,1.979-6.041,5.346a2.521,2.521,0,0,1-2.857,1.212,2.482,2.482,0,0,1-1.732-3.073Z" transform="translate(-432.315 -298.557)" fill="#ffb8b8"/>
  <path id="Path_26" data-name="Path 26" d="M524.684,304.086a1.186,1.186,0,0,1-.752-.268l-1.666-1.361a1.189,1.189,0,0,1,.029-1.864l6.987-5.359a.4.4,0,0,0,.075-.553l-4.312-5.7a3.51,3.51,0,0,1,.235-4.522h0a3.5,3.5,0,0,1,4.727-.378l.027.029,4.5,6.448a4.015,4.015,0,0,1-.1,6.391l-9.049,6.907a1.191,1.191,0,0,1-.708.233Z" transform="translate(-444.189 -256.124)" fill="#ccc"/>
  <path id="Path_27" data-name="Path 27" d="M497.965,221.434v-3.22l5.749-2.51,5.481,2.51v3.22a.528.528,0,0,1-.528.528H498.493A.528.528,0,0,1,497.965,221.434Z" transform="translate(-426.63 -206.364)" fill="#2f2e41"/>
  <path id="Path_28" data-name="Path 28" d="M518.13,187.73c-.845-2.705.93-5.806,3.554-6.877a8.179,8.179,0,0,1,7.978,1.447,13.463,13.463,0,0,1,4.316,7.159,40.107,40.107,0,0,1,1,8.427,5.662,5.662,0,1,1-5.427,2.01,6.969,6.969,0,0,0-8.109-10.81C519.854,189.75,517.861,188.023,518.13,187.73Z" transform="translate(-441.31 -180.357)" fill="#2f2e41"/>
  <path id="Path_29" data-name="Path 29" d="M348.5,241.49a27.6,27.6,0,0,1-11.19-2.451,1.182,1.182,0,0,1-.7-1.084v-9.623a1.19,1.19,0,0,1,1.189-1.189h21.4a1.19,1.19,0,0,1,1.189,1.189v9.623a1.182,1.182,0,0,1-.7,1.084h0A27.6,27.6,0,0,1,348.5,241.49Z" transform="translate(-307.914 -214.78)" fill="#5ca9fb"/>
  <path id="Path_30" data-name="Path 30" d="M331.033,207.448a1.19,1.19,0,0,1-.462-.093L313.6,200.195a1.189,1.189,0,0,1,.04-2.207l16.973-6.439a1.185,1.185,0,0,1,.849,0l16.745,6.439a1.189,1.189,0,0,1,.041,2.2L331.5,207.353A1.191,1.191,0,0,1,331.033,207.448Z" transform="translate(-290.445 -188.534)" fill="#5ca9fb"/>
  <circle id="Ellipse_2" data-name="Ellipse 2" cx="1.585" cy="1.585" r="1.585" transform="translate(29.096 21.743)" fill="#3f3d56"/>
  <path id="Path_31" data-name="Path 31" d="M348.977,219.4l-16.746,7.161a1.057,1.057,0,0,1-.826,0L314.432,219.4a1.037,1.037,0,0,1-.505-.444,1.056,1.056,0,0,0,.505,1.5l16.973,7.161a1.057,1.057,0,0,0,.826,0l16.746-7.161a1.056,1.056,0,0,0,.5-1.5A1.038,1.038,0,0,1,348.977,219.4Z" transform="translate(-291.118 -208.758)" opacity="0.2"/>
  <path id="Path_32" data-name="Path 32" d="M343.882,232.952a.264.264,0,0,0,.264-.264v-8.842l8.715-3.175a.264.264,0,1,0,.008-.528l-8.715,3.175a.518.518,0,0,0-.379.152.525.525,0,0,0-.158.376v8.842A.264.264,0,0,0,343.882,232.952Z" transform="translate(-313.067 -209.63)" fill="#3f3d56"/>
</svg>
