<svg xmlns="http://www.w3.org/2000/svg" width="152.36" height="142.5" viewBox="0 0 152.36 142.5">
  <g id="Group_28" data-name="Group 28" transform="translate(0 -0.004)">
    <path id="Path_61" data-name="Path 61" d="M823.044,587.9l6.835,1.068a22.32,22.32,0,0,0,4.646-9.682c-5,4.091-12.6,1.917-18.658,4.151a13.426,13.426,0,0,0-8.032,8.421l-3.34,3.594a22.5,22.5,0,0,0,18.809-1.035,21.731,21.731,0,0,0,4.429-3.179C825.34,589.727,823.044,587.9,823.044,587.9Z" transform="translate(-682.202 -478.876)" fill="#f2f2f2"/>
    <path id="Path_62" data-name="Path 62" d="M830.537,524.938l6.594-2.092a22.32,22.32,0,0,0-.16-10.738c-2.649,5.891-10.421,7.334-14.849,12.036a13.426,13.426,0,0,0-3.434,11.119l-1.387,4.706a22.5,22.5,0,0,0,16.373-9.315,21.732,21.732,0,0,0,2.546-4.821C833.408,525.552,830.537,524.938,830.537,524.938Z" transform="translate(-692.121 -426.849)" fill="#f2f2f2"/>
    <path id="Path_63" data-name="Path 63" d="M414.525,659.7a.268.268,0,0,1-.268.268H262.433a.268.268,0,1,1,0-.537H414.257a.268.268,0,0,1,.268.268Z" transform="translate(-262.165 -540.955)" fill="#ccc"/>
    <circle id="Ellipse_5" data-name="Ellipse 5" cx="48.481" cy="48.481" r="48.481" transform="translate(14.431 10.346)" fill="#e6e6e6"/>
    <path id="Path_64" data-name="Path 64" d="M439.6,251.608A41.659,41.659,0,0,1,422.759,285.1c-.349.262-.706.516-1.064.764a41.724,41.724,0,0,1-47.629,0c-.359-.248-.715-.5-1.064-.764a41.721,41.721,0,0,1,0-66.977c.349-.262.706-.516,1.064-.764a41.724,41.724,0,0,1,47.629,0c.359.248.715.5,1.064.764A41.659,41.659,0,0,1,439.6,251.608Z" transform="translate(-334.967 -192.782)" fill="#fff"/>
    <circle id="Ellipse_6" data-name="Ellipse 6" cx="38.109" cy="38.109" r="38.109" transform="translate(24.804 20.718)" fill="#5ca9fb"/>
    <path id="Path_65" data-name="Path 65" d="M530.142,226.365c-.578,0-1.152.015-1.723.041a38.107,38.107,0,0,1-1.614,76.03c1.1.1,2.212.147,3.337.147a38.109,38.109,0,1,0,0-76.217Z" transform="translate(-467.13 -205.54)" opacity="0.2"/>
    <path id="Path_66" data-name="Path 66" d="M537.4,213.892a1.242,1.242,0,0,0-1.24,1.24v5.412a1.24,1.24,0,1,0,2.48,0v-5.412A1.242,1.242,0,0,0,537.4,213.892Z" transform="translate(-474.378 -195.88)" fill="#fff"/>
    <path id="Path_67" data-name="Path 67" d="M632.84,243.747c-.349-.262-.706-.516-1.064-.764a1.24,1.24,0,0,0-1.1.539l-3.046,4.472a1.24,1.24,0,1,0,2.05,1.4l3.047-4.472A1.232,1.232,0,0,0,632.84,243.747Z" transform="translate(-545.048 -218.409)" fill="#fff"/>
    <path id="Path_68" data-name="Path 68" d="M687.445,334.148a1.239,1.239,0,0,0-1.615-.681l-5.015,2.036a1.24,1.24,0,0,0,.934,2.3l5.015-2.036a1.243,1.243,0,0,0,.681-1.617Z" transform="translate(-585.813 -288.42)" fill="#fff"/>
    <path id="Path_69" data-name="Path 69" d="M435.721,247.993l-3.046-4.472a1.239,1.239,0,0,0-1.1-.539c-.359.248-.715.5-1.064.764a1.232,1.232,0,0,0,.12,1.17l3.046,4.472a1.24,1.24,0,0,0,2.05-1.4Z" transform="translate(-392.472 -218.409)" fill="#fff"/>
    <path id="Path_70" data-name="Path 70" d="M375.764,335.5l-5.015-2.036a1.24,1.24,0,1,0-.934,2.3l5.015,2.036a1.24,1.24,0,1,0,.934-2.3Z" transform="translate(-344.942 -288.421)" fill="#fff"/>
    <path id="Path_71" data-name="Path 71" d="M537.4,540.892a1.242,1.242,0,0,0-1.24,1.24v5.412a1.24,1.24,0,1,0,2.48,0v-5.412A1.242,1.242,0,0,0,537.4,540.892Z" transform="translate(-474.378 -449.143)" fill="#fff"/>
    <path id="Path_72" data-name="Path 72" d="M632.72,520.991l-3.047-4.472a1.24,1.24,0,1,0-2.05,1.4l3.046,4.472a1.239,1.239,0,0,0,1.1.539c.359-.248.715-.5,1.064-.764a1.232,1.232,0,0,0-.12-1.17Z" transform="translate(-545.048 -429.846)" fill="#fff"/>
    <path id="Path_73" data-name="Path 73" d="M686.764,438.5l-5.015-2.036a1.24,1.24,0,1,0-.934,2.3l5.015,2.036a1.24,1.24,0,0,0,.934-2.3Z" transform="translate(-585.813 -368.195)" fill="#fff"/>
    <path id="Path_74" data-name="Path 74" d="M435.394,516.193a1.24,1.24,0,0,0-1.723.327l-3.046,4.471a1.232,1.232,0,0,0-.12,1.17c.349.262.706.516,1.064.764a1.239,1.239,0,0,0,1.1-.539l3.046-4.472A1.24,1.24,0,0,0,435.394,516.193Z" transform="translate(-392.472 -429.847)" fill="#fff"/>
    <path id="Path_75" data-name="Path 75" d="M376.445,437.148a1.239,1.239,0,0,0-1.615-.681l-5.015,2.036a1.24,1.24,0,0,0,.934,2.3l5.015-2.036a1.243,1.243,0,0,0,.681-1.617Z" transform="translate(-344.942 -368.194)" fill="#fff"/>
    <path id="Path_76" data-name="Path 76" d="M455.52,384.75a2.6,2.6,0,0,1-2.122,2.991l-22.008,3.744a2.593,2.593,0,1,1-.87-5.113l22.008-3.743a2.6,2.6,0,0,1,2.991,2.122Z" transform="translate(-390.885 -326.538)" fill="#3f3d56"/>
    <path id="Path_77" data-name="Path 77" d="M560.214,409.66a1.693,1.693,0,0,1-2.392.009l-23.691-23.505a1.691,1.691,0,0,1,2.382-2.4L560.2,407.269A1.693,1.693,0,0,1,560.214,409.66Z" transform="translate(-472.417 -327.066)" fill="#3f3d56"/>
    <circle id="Ellipse_7" data-name="Ellipse 7" cx="2.931" cy="2.931" r="2.931" transform="translate(59.981 55.896)" fill="#ccc"/>
    <path id="Path_78" data-name="Path 78" d="M366.037,142.022c-4.5,7.074-11.365,11.769-19.832,14.853a1.592,1.592,0,0,1-2.228-.32h0a13.981,13.981,0,1,1,22.253-16.932l.127.17A1.592,1.592,0,0,1,366.037,142.022Z" transform="translate(-323.316 -134.027)" fill="#e6e6e6"/>
    <path id="Path_79" data-name="Path 79" d="M628.324,139.624a13.982,13.982,0,1,1,22.253,16.932h0a1.592,1.592,0,0,1-2.228.32c-7.86-3.009-14.306-8.217-19.832-14.853a1.592,1.592,0,0,1-.32-2.228Z" transform="translate(-545.412 -134.027)" fill="#e6e6e6"/>
    <path id="Path_80" data-name="Path 80" d="M618.928,580.62a1.242,1.242,0,0,0-.477,1.688l7.158,12.791a1.24,1.24,0,1,0,2.165-1.211L620.616,581.1A1.242,1.242,0,0,0,618.928,580.62Z" transform="translate(-537.989 -479.791)" fill="#e6e6e6"/>
    <path id="Path_81" data-name="Path 81" d="M428.606,581.094l-7.158,12.791a1.24,1.24,0,1,0,2.165,1.211l7.158-12.791a1.24,1.24,0,0,0-2.165-1.211Z" transform="translate(-385.409 -479.788)" fill="#e6e6e6"/>
    <circle id="Ellipse_8" data-name="Ellipse 8" cx="3.833" cy="3.833" r="3.833" transform="translate(85.237 110.916)" fill="#e6e6e6"/>
    <circle id="Ellipse_9" data-name="Ellipse 9" cx="3.833" cy="3.833" r="3.833" transform="translate(87.943 12.826)" fill="#e6e6e6"/>
    <circle id="Ellipse_10" data-name="Ellipse 10" cx="3.833" cy="3.833" r="3.833" transform="translate(58.854 3.806)" fill="#e6e6e6"/>
    <circle id="Ellipse_11" data-name="Ellipse 11" cx="3.833" cy="3.833" r="3.833" transform="translate(31.118 12.375)" fill="#e6e6e6"/>
    <circle id="Ellipse_12" data-name="Ellipse 12" cx="3.833" cy="3.833" r="3.833" transform="translate(33.598 110.916)" fill="#e6e6e6"/>
    <path id="Path_82" data-name="Path 82" d="M642.762,480.5a1.92,1.92,0,0,0,2.92.378L651.7,484.1l-.323-3.532-5.663-2.519a1.931,1.931,0,0,0-2.95,2.45Z" transform="translate(-556.699 -400.058)" fill="#ffb7b7"/>
    <path id="Path_83" data-name="Path 83" d="M663.264,485.023l2.357-3.254,11.356,5.368,14.131-2.651a4.842,4.842,0,0,1,5.734,4.75h0a4.847,4.847,0,0,1-4.833,4.85l-16.194.03Z" transform="translate(-572.818 -403.352)" fill="#3f3d56"/>
    <path id="Path_84" data-name="Path 84" d="M376.807,573.242l-2.385-1.141,3.276-9.969,3.52,1.684Z" transform="translate(-289.992 -435.372)" fill="#ffb7b7"/>
    <path id="Path_85" data-name="Path 85" d="M697.095,705.982c-.173.109-.347.215-.522.322-.349.214-.7.424-1.053.631l-.533.308v.005l-.01,0,0,0-.27.067-.387-1.023-.179-.471-.252-.667-.463-1.221-2.435-6.429,3.786-.934.142.58h0l.07.287,1.323,5.364.27,1.1.009.033.163.655.14.568.156.634Z" transform="translate(-594.291 -569.718)" fill="#ffb7b7"/>
    <path id="Path_86" data-name="Path 86" d="M710,598.679c-.24.385-.485.769-.732,1.149q-.688,1.062-1.414,2.092s0,0,0,0a4.946,4.946,0,0,1-.928.678c-.014.011-.03.018-.044.026a3.424,3.424,0,0,1-.781.314l-.3.074c-.354.084-.7.156-1.053.219-.62.11-1.233.189-1.843.238-.049.005-.1.009-.147.012a28.5,28.5,0,0,1-7.494-.6c-1.258-.238-2.542-.524-3.871-.82-.434-.1-.871-.195-1.312-.291l-.1-.023c-.631-.138-1.272-.275-1.929-.41-.827-.17-1.68-.335-2.566-.49l.063,1.249a9.4,9.4,0,0,0,.592,2.808,4.846,4.846,0,0,1,.046,3.807l-.3.883a3.015,3.015,0,0,1-.31,2.668l-.061.093,2.542,6.431.165.417h-1.3l-1.6,0H682.6l-3.915-7.855-.187-.375v-.019l.4-15.1c.005-.133.016-.268.033-.4a4.589,4.589,0,0,1,1.747-3.09,4.42,4.42,0,0,1,3.292-.9l1.34.173,2.738.354,1.929.25.039.005,5.688.736.408-1.664.075-.028,2.395-.878,8.283-3.036.021-.007.545-.2.065.105c.019.032.039.063.056.095a16.239,16.239,0,0,1,1.309,3.038,47.684,47.684,0,0,1,1.375,5.25q.024.116.042.21l.005.019c.005.03.009.049.01.054A4.9,4.9,0,0,1,710,598.679Z" transform="translate(-584.617 -484.993)" fill="#2f2e41"/>
    <path id="Path_87" data-name="Path 87" d="M684.478,584.995c-.026-.112-.06-.226-.095-.336a23.985,23.985,0,0,0-.97-2.456c-.413-.911-.909-1.887-1.5-2.943q-.428-.767-.921-1.6-.247-.415-.513-.846c-.007-.013-.015-.026-.023-.039l-.051-.084-8.2,1.1-3.052.408-.182,1.521-.044.377s0,0,0,0l-.123,1.027v0l-.163,1.356-.014,0-4.528-.587-4.667-.6-2.507-.324a4.417,4.417,0,0,0-3.292.9,4.592,4.592,0,0,0-1.747,3.09c-.016.123-.026.249-.031.373l-2.365,5.6a36.154,36.154,0,0,0-2.673,10.518L645.089,607l.247.023,3.675.342.97.091,2.137-3.12c.244-.356.475-.722.69-1.1a16.646,16.646,0,0,0,.944-1.9l4.623-11q.536.092,1.062.175,2.431.394,4.667.643a54.992,54.992,0,0,0,12.781.124q1.574-.192,3.043-.5.539-.113,1.063-.244c.082-.019.163-.039.244-.06a4.471,4.471,0,0,0,3.127-2.922,4.561,4.561,0,0,0,.116-2.552Z" transform="translate(-558.741 -476.872)" fill="#2f2e41"/>
    <path id="Path_88" data-name="Path 88" d="M619.679,733.291l-2.58-1.237-.4-.194-.646,1.587-4.513.993a1.071,1.071,0,0,0-.175,2.037l4.409,1.8,1.4-1.26-.343,1.69,1.661.678,1.82-5.793Z" transform="translate(-532.102 -597.048)" fill="#2f2e41"/>
    <path id="Path_89" data-name="Path 89" d="M458.7,593.34l.165.417H458.7Z" transform="translate(-355.268 -459.542)" fill="#2f2e41"/>
    <path id="Path_90" data-name="Path 90" d="M699.193,728.831l-2.7.937-.424.147.657,1.583-2.508,3.881a1.071,1.071,0,0,0,1.309,1.571l4.4-1.824.108-1.88.946,1.443,1.657-.687-2.783-5.4Z" transform="translate(-596.656 -594.526)" fill="#2f2e41"/>
    <path id="Path_91" data-name="Path 91" d="M764.556,512.171a.994.994,0,0,1-.461-.114L749.827,504.6l-.165-.675-.311-2.136,0-.02,1.357-6.256c-.025-.054-.077-.142-.135-.241-.606-1.026-2.449-4.15,1.069-8.452l6.178-7.2,5.3-.228.06.076a13.81,13.81,0,0,1,2.348,12.828l-.552,9.971.592,2.014a5.556,5.556,0,0,1-.163,3.6l.136,3.26a1,1,0,0,1-.991,1.035Z" transform="translate(-639.493 -401.51)" fill="#3f3d56"/>
    <path id="Path_92" data-name="Path 92" d="M751.851,630.983a1.92,1.92,0,0,0,.479-2.905l3.43-5.9-3.541.2-2.715,5.572a1.931,1.931,0,0,0,2.346,3.034Z" transform="translate(-639.165 -512.099)" fill="#ffb7b7"/>
    <path id="Path_93" data-name="Path 93" d="M757.144,527.222l-3.17-2.469,5.76-11.162-2.158-14.215a4.842,4.842,0,0,1,4.946-5.566h0a4.847,4.847,0,0,1,4.68,5l-.533,16.185Z" transform="translate(-643.073 -412.675)" fill="#3f3d56"/>
    <path id="a1ca5f83-7fa1-45b1-9d3b-bf096f25c0e5" d="M771.842,424.948V419.7a7.03,7.03,0,1,1,14.061-.009v.009c1.239,2.582.464,3.81,0,5.247a.946.946,0,0,1-.944.944H772.786A.946.946,0,0,1,771.842,424.948Z" transform="translate(-656.912 -349.832)" fill="#2f2e41"/>
    <circle id="Ellipse_13" data-name="Ellipse 13" cx="5.262" cy="5.262" r="5.262" transform="translate(114.392 65.195)" fill="#ffb7b7"/>
    <path id="Path_94" data-name="Path 94" d="M776.188,425.311l-.143-.025c-.821-.146-1.642-.289-2.46-.437l-.075-1.855-.992,1.662a8.32,8.32,0,0,1-6.369-.61,17.985,17.985,0,0,1-1.908-1.052,6.974,6.974,0,0,1,3.427-4.935c.075-.043.148-.08.223-.118h0v0c.128-.06.259-.118.389-.171a5.8,5.8,0,0,1,6.085,1.18A6.925,6.925,0,0,1,776.188,425.311Z" transform="translate(-651.026 -353.474)" fill="#2f2e41"/>
  </g>
</svg>
