<svg xmlns="http://www.w3.org/2000/svg" width="168.478" height="142.5" viewBox="0 0 168.478 142.5">
  <g id="Group_29" data-name="Group 29" transform="translate(0.001 0)">
    <path id="Path_95" data-name="Path 95" d="M588.591,239.711c5.589-4.129,13.458-5.712,19.615-2.491a32.016,32.016,0,0,0-15.932,15.144c-1.285,2.616-2.442,5.659-5.094,6.867a7.157,7.157,0,0,1-5.306,0,21.258,21.258,0,0,1-4.727-2.66l-.449-.054C579.364,250.1,583,243.839,588.591,239.711Z" transform="translate(-498.482 -219.695)" fill="#f0f0f0"/>
    <path id="Path_96" data-name="Path 96" d="M608.435,241.8a27.365,27.365,0,0,0-15.85,5.678A11.784,11.784,0,0,0,590,250.118a6.757,6.757,0,0,0-1.114,3.378,14,14,0,0,1-.388,3.364,4.139,4.139,0,0,1-2.31,2.474,10.752,10.752,0,0,1-4.217.721,10.558,10.558,0,0,0-4.687.8c-.175.091-.306-.186-.131-.277,2.515-1.3,5.454-.453,8.1-1.228a4.191,4.191,0,0,0,2.861-2.328,10.854,10.854,0,0,0,.459-3.408,7.212,7.212,0,0,1,.966-3.344,10.894,10.894,0,0,1,2.471-2.729,26.55,26.55,0,0,1,7.184-4.152,27.85,27.85,0,0,1,9.267-1.9C608.658,241.489,608.63,241.794,608.435,241.8Z" transform="translate(-498.761 -224.138)" fill="#fff"/>
    <path id="Path_97" data-name="Path 97" d="M640.935,244.837a4.106,4.106,0,0,1,.965-5.228c.153-.124.353.108.2.232a3.8,3.8,0,0,0-.887,4.865c.1.17-.178.3-.277.131Z" transform="translate(-545.711 -222.713)" fill="#fff"/>
    <path id="Path_98" data-name="Path 98" d="M622.069,283.992a7.913,7.913,0,0,0,5.738-.578c.176-.09.306.187.131.277a8.231,8.231,0,0,1-5.972.589C621.775,284.227,621.88,283.939,622.069,283.992Z" transform="translate(-531.975 -255.209)" fill="#fff"/>
    <path id="Path_99" data-name="Path 99" d="M673.214,245.685a2.324,2.324,0,0,0,1.6,1.519c.191.051.086.339-.1.288a2.6,2.6,0,0,1-1.772-1.677.158.158,0,0,1,.073-.2A.154.154,0,0,1,673.214,245.685Z" transform="translate(-569.837 -227.18)" fill="#fff"/>
    <path id="Path_100" data-name="Path 100" d="M611.983,303.009c-.12-.029-.24-.057-.362-.084a30.6,30.6,0,0,0-4.91-.732c-.128-.011-.257-.019-.385-.026a32.264,32.264,0,0,0-11.78,1.529,31.337,31.337,0,0,0-4.4,1.815c-1.96.989-4.005,2.216-6.115,2.492a5.367,5.367,0,0,1-.663.053l-7.8-8.212c-.008-.028-.019-.053-.027-.081l-.327-.314.215-.126.124-.072c.028-.016.056-.032.08-.047l.026-.014c.024-.016.048-.028.071-.042q.62-.354,1.248-.7s0,0,.005,0a46.071,46.071,0,0,1,10.049-4.2c.105-.028.212-.059.32-.083a29.9,29.9,0,0,1,4.8-.86,26.424,26.424,0,0,1,2.672-.111,21.979,21.979,0,0,1,6.776,1.149A17.453,17.453,0,0,1,611.83,302.7C611.883,302.8,611.933,302.9,611.983,303.009Z" transform="translate(-497.378 -262.469)" fill="#f0f0f0"/>
    <path id="Path_101" data-name="Path 101" d="M612.408,316.246a27.364,27.364,0,0,0-16.074-5.009,11.782,11.782,0,0,0-3.651.552,6.759,6.759,0,0,0-2.924,2.026,13.985,13.985,0,0,1-2.335,2.452,4.138,4.138,0,0,1-3.334.585,10.752,10.752,0,0,1-3.8-1.963,10.557,10.557,0,0,0-4.226-2.18c-.194-.033-.132-.333.062-.3,2.792.475,4.627,2.922,7.2,3.9a4.191,4.191,0,0,0,3.686-.136,10.857,10.857,0,0,0,2.418-2.445,7.212,7.212,0,0,1,2.785-2.088,10.9,10.9,0,0,1,3.616-.691,26.549,26.549,0,0,1,8.236,1.01,27.849,27.849,0,0,1,8.542,4.063C612.773,316.132,612.567,316.359,612.408,316.246Z" transform="translate(-497.925 -275.625)" fill="#fff"/>
    <path id="Path_102" data-name="Path 102" d="M661.981,301.313a4.106,4.106,0,0,1,3.918-3.594c.2-.007.217.3.02.306a3.8,3.8,0,0,0-3.637,3.35C662.258,301.571,661.958,301.508,661.981,301.313Z" transform="translate(-561.722 -265.83)" fill="#fff"/>
    <path id="Path_103" data-name="Path 103" d="M629.8,320.064a7.913,7.913,0,0,0,4.929,2.993c.194.034.132.334-.062.3a8.231,8.231,0,0,1-5.123-3.125c-.119-.157.137-.324.256-.168Z" transform="translate(-537.648 -282.353)" fill="#fff"/>
    <path id="Path_104" data-name="Path 104" d="M694.359,318.91a2.324,2.324,0,0,0,.361,2.175c.121.156-.136.323-.256.168a2.6,2.6,0,0,1-.405-2.406.158.158,0,0,1,.181-.119A.154.154,0,0,1,694.359,318.91Z" transform="translate(-585.411 -281.407)" fill="#fff"/>
    <path id="Path_105" data-name="Path 105" d="M459.545,200.5h-.6V183.935a9.589,9.589,0,0,0-9.589-9.589h-35.1a9.589,9.589,0,0,0-9.589,9.589v90.9a9.589,9.589,0,0,0,9.589,9.589h35.1a9.589,9.589,0,0,0,9.589-9.589V212.3h.6Z" transform="translate(-370.912 -174.345)" fill="#3f3d56"/>
    <path id="Path_106" data-name="Path 106" d="M457.329,184h-4.582a3.4,3.4,0,0,1-3.15,4.687h-20.11a3.4,3.4,0,0,1-3.15-4.687h-4.28a7.161,7.161,0,0,0-7.161,7.161v90.762a7.161,7.161,0,0,0,7.161,7.161h35.272a7.161,7.161,0,0,0,7.161-7.161h0V191.158A7.161,7.161,0,0,0,457.329,184Z" transform="translate(-378.503 -181.502)" fill="#fff"/>
    <path id="Path_107" data-name="Path 107" d="M456.727,364.3a19.776,19.776,0,1,1,19.507-16.545A19.755,19.755,0,0,1,456.727,364.3Zm0-38.771A18.787,18.787,0,0,0,448.1,327.6a19.013,19.013,0,1,0,8.627-2.069Z" transform="translate(-394.859 -285.876)" fill="#f0f0f0"/>
    <path id="Path_108" data-name="Path 108" d="M335.484,333.268a3.742,3.742,0,0,1,3.108,4.823l6.57,5.472-2.352,4.8-9.169-7.858a3.762,3.762,0,0,1,1.844-7.24Z" transform="translate(-316.462 -292.166)" fill="#ffb6b6"/>
    <path id="Path_109" data-name="Path 109" d="M408.384,373.039a19.7,19.7,0,0,0-1.139-4.9c-1.421-3.719-10.6-6.775-11.834-7.169l-.313-3.476-12.756-1.372-1.618,4.446-4.575,1.716a2.247,2.247,0,0,0-1.339,1.372h0l-4.1,1.186-4.05,1.171-14.071-9.915-.664.434-4.44,2.9-.685.447L365,376.3l6.764-1.587,5.087-1.2.434,1.763-1.124,6.193a19.38,19.38,0,0,0,25.062,2l2.89-2.564a19.357,19.357,0,0,0,4.345-7.633Z" transform="translate(-328.004 -309.115)" fill="#e4e4e4"/>
    <circle id="Ellipse_14" data-name="Ellipse 14" cx="9.184" cy="9.184" r="9.184" transform="translate(50.233 29.607) rotate(-18.319)" fill="#ffb6b6"/>
    <path id="Path_110" data-name="Path 110" d="M480.042,263.423a6.2,6.2,0,0,1,3.753-2.5,5.918,5.918,0,0,1,4.364.8,8.938,8.938,0,0,1,4.421-.753,4.714,4.714,0,0,1,3.647,2.4,6.557,6.557,0,0,0,.527,1.023,3.425,3.425,0,0,0,2.738.956l-1.515.883,1.51.7-2.055.785a5.905,5.905,0,0,1,1.376,5.987,11.932,11.932,0,0,1-3.345,5.073,7.622,7.622,0,0,1,.238-3.321,3.76,3.76,0,0,0-.559-3.349,3.8,3.8,0,0,0-2.118-.857,102.794,102.794,0,0,0-11.6-1.378,3.283,3.283,0,0,0-1.546.158c-.947.421-1.327,1.576-1.6,2.6a20.621,20.621,0,0,1,.312-5.377A9.848,9.848,0,0,1,480.042,263.423Z" transform="translate(-425.459 -238.454)" fill="#2f2e41"/>
    <path id="Path_111" data-name="Path 111" d="M496.232,505.638H485.376a1.422,1.422,0,0,1,0-2.843h10.856a1.422,1.422,0,0,1,0,2.843Z" transform="translate(-429.711 -417.898)" fill="#5ca9fb"/>
    <path id="Path_112" data-name="Path 112" d="M304.992,213.511h-29.86a1.039,1.039,0,0,1,0-2.077h29.86a1.039,1.039,0,1,1,0,2.077Z" transform="translate(-274.094 -201.847)" fill="#5ca9fb"/>
    <path id="Path_113" data-name="Path 113" d="M322.232,239.174h-47.1a1.039,1.039,0,0,1,0-2.077h47.1a1.039,1.039,0,0,1,0,2.077Z" transform="translate(-274.094 -220.877)" fill="#5ca9fb"/>
    <path id="Path_114" data-name="Path 114" d="M313.182,263.351H275.133a1.039,1.039,0,0,1,0-2.077h38.049a1.039,1.039,0,0,1,0,2.077Z" transform="translate(-274.095 -238.805)" fill="#cacaca"/>
    <path id="Path_115" data-name="Path 115" d="M296.588,287.44H275.133a1.039,1.039,0,0,1,0-2.077h21.456a1.039,1.039,0,1,1,0,2.077Z" transform="translate(-274.095 -256.667)" fill="#cacaca"/>
    <path id="Path_116" data-name="Path 116" d="M308.44,311.526H275.132a1.039,1.039,0,0,1,0-2.077H308.44a1.039,1.039,0,1,1,0,2.077Z" transform="translate(-274.094 -274.528)" fill="#cacaca"/>
    <path id="Path_117" data-name="Path 117" d="M484.73,506.611h-2.676l-1.273-10.323h3.95Z" transform="translate(-356.511 -368.01)" fill="#9f616a"/>
    <path id="Path_118" data-name="Path 118" d="M744.914,709.058H734.7v-.129a3.977,3.977,0,0,1,3.977-3.977h0l1.866-1.416,3.482,1.416h.892Z" transform="translate(-615.642 -566.752)" fill="#2f2e41"/>
    <path id="Path_119" data-name="Path 119" d="M758.074,462.8l-1.18-14.392-.927-5.4,5.192-1.147,1.723,7.4-1.5,13.944a2.4,2.4,0,1,1-3.306-.4Z" transform="translate(-631.415 -372.712)" fill="#9f616a"/>
    <path id="Path_120" data-name="Path 120" d="M429.73,506.611h-2.676l-1.273-10.323h3.95Z" transform="translate(-315.727 -368.01)" fill="#9f616a"/>
    <path id="Path_121" data-name="Path 121" d="M692.416,534.54l-1.186,2.052s-1.3.356-.878,4.606.444,29.427,2.507,32.525l.373,2.66,3.894.372.1-2.361,4.644-32.8s2.735,32.2,5,32.984l.817,2.682,3.569,0-.211-3.161.23-39.9Z" transform="translate(-582.697 -441.192)" fill="#2f2e41"/>
    <path id="Path_122" data-name="Path 122" d="M693.3,429.351l-.082-.021c2.449-9.159,1.742-21.02.013-33.756v-.053l6.251-5.725h5.428l5.381,3.473a8.593,8.593,0,0,1,4.277,5.46l.005.026-2.131,7.44,1.606,21.516,0,.025-.009.023c-.52,1.318-1.912,1.13-3.525.913s-7.541,1.768-9.36,1.768A36.8,36.8,0,0,1,693.3,429.351Z" transform="translate(-584.887 -334.107)" fill="#e4e4e4"/>
    <path id="Path_123" data-name="Path 123" d="M753.09,411.539l2.332-1.014,3.072,3.767,2.49,12.07-8.53-1.292Z" transform="translate(-628.811 -349.478)" fill="#e4e4e4"/>
    <path id="Path_124" data-name="Path 124" d="M607.451,461.028l10.66-9.741,3.7-4.039,4.084,3.4-4.795,5.888-11.947,7.346a2.4,2.4,0,1,1-1.707-2.859Z" transform="translate(-519.038 -376.709)" fill="#9f616a"/>
    <path id="Path_125" data-name="Path 125" d="M656.5,425.271l2.952-3.834c.024-.055,2.474-5.529,4.6-7.907,2.178-2.44,3.893-1.192,3.91-1.179l.043.032.119,9.01-8.175,9.768Z" transform="translate(-557.656 -350.587)" fill="#e4e4e4"/>
    <circle id="Ellipse_15" data-name="Ellipse 15" cx="4.976" cy="4.976" r="4.976" transform="translate(111.064 53.613) rotate(-80.783)" fill="#9f616a"/>
    <path id="Path_126" data-name="Path 126" d="M706.081,343.743a14.468,14.468,0,0,0-.261-2.523c-.221-.774-.664-1.437-.442-1.437s.332-.553.332-.553.221-.111.332,0,.221-.774.221-.774.111-.332.221-.111.111.111.221-.221.663-.553.663-.553,2.1.111,2.433-.332,4.091-.111,4.865.442,4.2,2.543,3.649,4.2a36.407,36.407,0,0,1-2.543,5.86c-.631.605-1.067.824-4.051,1.418-.584.116-3.565-1.79-3.565-2.122s.359-1.384-.218-1.528c-.873-.218-.971.886-1.193.554A15.8,15.8,0,0,1,706.081,343.743Z" transform="translate(-593.858 -294.983)" fill="#2f2e41"/>
    <path id="Path_127" data-name="Path 127" d="M689.914,709.058H679.7v-.129a3.977,3.977,0,0,1,3.977-3.977h0l1.866-1.416,3.482,1.416h.892Z" transform="translate(-574.859 -566.752)" fill="#2f2e41"/>
    <path id="Path_128" data-name="Path 128" d="M443.849,723.889H276.539a.308.308,0,0,1,0-.616H443.849a.308.308,0,0,1,0,.616Z" transform="translate(-275.679 -581.389)" fill="#cacaca"/>
  </g>
</svg>
