<svg id="Group_26" data-name="Group 26" xmlns="http://www.w3.org/2000/svg" width="226.716" height="142.5" viewBox="0 0 226.716 142.5">
  <path id="Path_33" data-name="Path 33" d="M292.171,378.548H203.618a.913.913,0,0,1-.912-.912V291.312a.913.913,0,0,1,.912-.912h88.553a.913.913,0,0,1,.912.912v86.324A.913.913,0,0,1,292.171,378.548Z" transform="translate(-202.706 -264.688)" fill="#f0f0f0"/>
  <path id="Path_34" data-name="Path 34" d="M306.654,318.1h-69.3a.913.913,0,0,0-.912.912v53.7a.913.913,0,0,0,.912.912h69.3a.913.913,0,0,0,.912-.912v-53.7a.913.913,0,0,0-.912-.912Z" transform="translate(-226.815 -284.483)" fill="#fff"/>
  <path id="Path_35" data-name="Path 35" d="M313.615,539.979h-61.4a.507.507,0,0,1-.507-.507v-2.837a.507.507,0,0,1,.507-.507h61.4a.507.507,0,0,1,.507.507v2.837A.507.507,0,0,1,313.615,539.979Z" transform="translate(-237.728 -440.304)" fill="#fff"/>
  <path id="Path_36" data-name="Path 36" d="M292.338,564.126H252.216a.507.507,0,0,1-.507-.507v-2.837a.507.507,0,0,1,.507-.507h40.122a.507.507,0,0,1,.507.507v2.837A.507.507,0,0,1,292.338,564.126Z" transform="translate(-237.728 -457.562)" fill="#fff"/>
  <circle id="Ellipse_3" data-name="Ellipse 3" cx="8.811" cy="8.811" r="8.811" transform="translate(34.665 52.38)" fill="#ffb8b8"/>
  <path id="Path_37" data-name="Path 37" d="M148.622,270.229H129.086l.638-14.363.152-.16,2.192-2.316h6.977l2.586,2.5.209.2,5.506,5.277Z" transform="translate(-92.255 -181.091)" fill="#5ca9fb"/>
  <path id="Path_38" data-name="Path 38" d="M306.4,476.032h-14.78c-.036-3.242-.057-5.183-.057-5.183l.855-.521,0,0h0l9.419-5.718,1.978-3.212.01.113.582,6.77S305.376,471.383,306.4,476.032Z" transform="translate(-266.212 -386.894)" fill="#2f2e41"/>
  <path id="Path_39" data-name="Path 39" d="M389.981,476.032H374.325c.237-9.455-1.04-14.637-.383-14.637l.383.3,4.614,3.643,6.081,2.231h0l4.193,1.538.736.27v.347C389.955,470.556,389.959,472.828,389.981,476.032Z" transform="translate(-324.949 -386.894)" fill="#2f2e41"/>
  <path id="Path_40" data-name="Path 40" d="M320.194,386.245s.749-1.315.575-5.707,6.514-1.908,12.1-2.327,4.406,7.333,4.406,7.333.4-.461,1.266-4.2a12.214,12.214,0,0,0-1.1-7.47c-.577-3.931-3.688-2.671-3.688-2.671a1.631,1.631,0,0,1,1.21,1.83c-1.268-2.223-4.379-.963-4.379-.963-4.149-2.6-8.354.825-8.354.825-5.012,1.138-2.073,5.124-2.073,5.124C315.122,380.564,320.194,386.245,320.194,386.245Z" transform="translate(-285.054 -322.297)" fill="#2f2e41"/>
  <path id="Path_41" data-name="Path 41" d="M283.434,498.4h-6.073a18.307,18.307,0,0,0,0-2.247c-.363-1.445,4.74-3.4,4.894-3.457l0,0h0l.973.523Z" transform="translate(-256.05 -409.262)" fill="#2f2e41"/>
  <path id="Path_42" data-name="Path 42" d="M416.5,491.365H410.12l-.8-7.862.894-.652s.081.018.225.055h0a17.5,17.5,0,0,1,4.193,1.538,2.6,2.6,0,0,1,.736.616.759.759,0,0,1,.174.539C415.517,485.892,415.889,488.056,416.5,491.365Z" transform="translate(-350.371 -402.227)" fill="#2f2e41"/>
  <path id="Path_43" data-name="Path 43" d="M770.01,288.433H681.457a.913.913,0,0,1-.912-.912V201.2a.913.913,0,0,1,.912-.912H770.01a.913.913,0,0,1,.912.912v86.324A.913.913,0,0,1,770.01,288.433Z" transform="translate(-544.206 -200.285)" fill="#f0f0f0"/>
  <path id="Path_44" data-name="Path 44" d="M784.494,227.984h-69.3a.913.913,0,0,0-.912.912v53.7a.913.913,0,0,0,.912.912h69.3a.913.913,0,0,0,.912-.912V228.9A.913.913,0,0,0,784.494,227.984Z" transform="translate(-568.315 -220.081)" fill="#fff"/>
  <path id="Path_45" data-name="Path 45" d="M791.455,449.865h-61.4a.507.507,0,0,1-.507-.507v-2.837a.507.507,0,0,1,.507-.507h61.4a.507.507,0,0,1,.507.507v2.837a.507.507,0,0,1-.507.507Z" transform="translate(-579.228 -375.902)" fill="#fff"/>
  <path id="Path_46" data-name="Path 46" d="M770.178,474.011H730.056a.507.507,0,0,1-.507-.507v-2.837a.507.507,0,0,1,.507-.507h40.122a.507.507,0,0,1,.507.507V473.5A.507.507,0,0,1,770.178,474.011Z" transform="translate(-579.228 -393.159)" fill="#fff"/>
  <path id="Path_47" data-name="Path 47" d="M815.61,378.938c.391-1.408.7-2.622.851-3.481a2.481,2.481,0,0,0,.014-.8c-.584-4.152-11.125-7.662-12.476-8.1l-.326-3.615L790.4,361.515l-1.68,4.624-4.762,1.785a2.268,2.268,0,0,0-.488.251,2.358,2.358,0,0,0-.971,2.515l2.028,8.247H815.61Z" transform="translate(-617.024 -315.512)" fill="#5ca9fb"/>
  <path id="Path_48" data-name="Path 48" d="M776.513,395.611h-10.3c.369-2.3.7-4.33.914-5.623.786-4.705,4.215-5.106,4.752-5.139.043,0,.069,0,.071,0h2.166Z" transform="translate(-605.433 -332.186)" fill="#5ca9fb"/>
  <path id="Path_49" data-name="Path 49" d="M890.432,407.925h2.5a8.124,8.124,0,0,0-1.631-4.284,5.118,5.118,0,0,0-1.785-1.485l-.188-.081-2.195,5.85Z" transform="translate(-691.846 -344.499)" fill="#5ca9fb"/>
  <circle id="Ellipse_109" data-name="Ellipse 109" cx="9.554" cy="9.554" r="9.554" transform="translate(169.942 24.608)" fill="#a0616a"/>
  <path id="Path_696" data-name="Path 696" d="M798.743,281.24c.989,1.17,2.662,1.5,4.206,1.635A39.62,39.62,0,0,0,813.709,282c.22,2.12-.377,4.405.871,6.149a28.551,28.551,0,0,0,1.014-6.471,6.2,6.2,0,0,0-.358-2.772,2.549,2.549,0,0,0-2.171-1.6,5.442,5.442,0,0,1,2.428-1.037l-3.033-1.524.779-.8-5.492-.336,1.591-1.01a34.49,34.49,0,0,0-7.229-.227,6.2,6.2,0,0,0-3.2.888,2.308,2.308,0,0,0-.868,2.889,4.2,4.2,0,0,0-3.2,2.537,6.771,6.771,0,0,0-.243,3.255,23.075,23.075,0,0,0,1.21,5.118" transform="translate(-625.66 -251.733)" fill="#2f2e41"/>
  <path id="Path_50" data-name="Path 50" d="M536.995,478.926H448.442a.913.913,0,0,1-.912-.912V391.69a.913.913,0,0,1,.912-.912h88.553a.913.913,0,0,1,.912.912v86.324A.913.913,0,0,1,536.995,478.926Z" transform="translate(-377.676 -336.426)" fill="#e4e4e4"/>
  <path id="Path_51" data-name="Path 51" d="M551.479,418.476h-69.3a.913.913,0,0,0-.912.912v53.7a.913.913,0,0,0,.912.912h69.3a.913.913,0,0,0,.912-.912v-53.7A.913.913,0,0,0,551.479,418.476Z" transform="translate(-401.785 -356.221)" fill="#fff"/>
  <path id="Path_52" data-name="Path 52" d="M558.44,640.357h-61.4a.507.507,0,0,1-.507-.507v-2.837a.507.507,0,0,1,.507-.507h61.4a.507.507,0,0,1,.507.507v2.837A.507.507,0,0,1,558.44,640.357Z" transform="translate(-412.698 -512.042)" fill="#fff"/>
  <path id="Path_53" data-name="Path 53" d="M537.163,664.5H497.041a.507.507,0,0,1-.507-.507V661.16a.507.507,0,0,1,.507-.507h40.122a.507.507,0,0,1,.507.507V664A.507.507,0,0,1,537.163,664.5Z" transform="translate(-412.698 -529.299)" fill="#fff"/>
  <path id="Path_54" data-name="Path 54" d="M594.868,578.455H580.92l.869-13.046,5.032,1.161,4.894-1.883.13-.049.008,0a.07.07,0,0,1,0,.012C591.934,564.958,593.469,571.108,594.868,578.455Z" transform="translate(-473.006 -460.677)" fill="#5ca9fb"/>
  <path id="Path_55" data-name="Path 55" d="M423.85,367.051l-1.3,10.916H410.792l1.5-13.767.014-.134.116.085.012.008,2.9,2.116Z" transform="translate(-293.583 -260.189)" fill="#2f2e41"/>
  <path id="Path_56" data-name="Path 56" d="M561.4,580.394H550.875l-.152-8.594,7.747-2.569,1.739-1.883S560.757,573.012,561.4,580.394Z" transform="translate(-451.425 -462.616)" fill="#2f2e41"/>
  <path id="Path_57" data-name="Path 57" d="M655.174,585.729H646.45l.559-7.82,3.1-3.1S652.556,579.951,655.174,585.729Z" transform="translate(-519.839 -467.95)" fill="#2f2e41"/>
  <path id="Path_58" data-name="Path 58" d="M548.429,591.545h-4.6c.02-2.5.032-4.235.032-4.724a4.561,4.561,0,0,1,1.935-3.87l2.324.774Z" transform="translate(-446.497 -473.767)" fill="#2f2e41"/>
  <path id="Path_59" data-name="Path 59" d="M557.439,489.736a12.259,12.259,0,0,1,6.013-10.507,12.689,12.689,0,0,1,12.841.113,11.872,11.872,0,0,1,5.532,9.44v10.278H557.439Z" transform="translate(-456.225 -398.432)" fill="#2f2e41"/>
  <circle id="Ellipse_4" data-name="Ellipse 4" cx="8.808" cy="8.808" r="8.808" transform="translate(100.97 88.062) rotate(-28.663)" fill="#ffb8b8"/>
  <path id="Path_60" data-name="Path 60" d="M566.167,494.35c-.067-.077-.223-.258.863-8.617l.034-.137h.1a18.4,18.4,0,0,1,16.607-.2,1.085,1.085,0,0,1,.615.878c.643,7.854.488,8.025.421,8.1a1.079,1.079,0,0,1-.8.352h-2.443l-.051-.092a25.216,25.216,0,0,0-1.379-2.267,20.126,20.126,0,0,0-.563,2.217l-.03.143H566.98A1.075,1.075,0,0,1,566.167,494.35Z" transform="translate(-462.428 -402.7)" fill="#2f2e41"/>
</svg>
